<?xml version="1.0" encoding="UTF-8"?>
<svg xmlns="http://www.w3.org/2000/svg" xmlns:xlink="http://www.w3.org/1999/xlink" width="20pt" height="20pt" viewBox="0 0 20 20" version="1.1">
<g id="surface1">
<path style=" stroke:none;fill-rule:nonzero;fill:#EB4F38;fill-opacity:1;" d="M 9.648438 0.746094 C 9.453125 1.046875 9.210938 1.425781 9.105469 1.589844 L 8.917969 1.886719 L 8.25 1.421875 C 7.878906 1.164062 7.511719 0.90625 7.421875 0.847656 L 7.269531 0.738281 L 7.101562 1.6875 C 7.011719 2.207031 6.917969 2.652344 6.902344 2.667969 C 6.886719 2.6875 6.488281 2.621094 5.953125 2.503906 C 5.445312 2.394531 5.015625 2.308594 4.996094 2.316406 C 4.980469 2.320312 5.046875 2.699219 5.144531 3.152344 C 5.246094 3.605469 5.339844 4.039062 5.351562 4.113281 L 5.375 4.246094 L 4.421875 4.417969 C 3.902344 4.507812 3.457031 4.589844 3.445312 4.597656 C 3.429688 4.609375 3.671875 4.980469 3.988281 5.429688 L 4.558594 6.246094 L 4.195312 6.476562 C 3.996094 6.601562 3.617188 6.84375 3.351562 7.019531 L 2.867188 7.328125 L 3.695312 7.863281 C 4.152344 8.15625 4.527344 8.40625 4.527344 8.425781 C 4.527344 8.445312 4.277344 8.820312 3.96875 9.253906 C 3.664062 9.691406 3.429688 10.050781 3.445312 10.058594 C 3.464844 10.0625 3.898438 10.144531 4.40625 10.234375 C 4.917969 10.328125 5.34375 10.414062 5.355469 10.425781 C 5.367188 10.4375 5.285156 10.875 5.167969 11.398438 C 5.054688 11.921875 4.960938 12.355469 4.964844 12.359375 C 4.96875 12.363281 5.382812 12.277344 5.890625 12.167969 C 6.453125 12.042969 6.816406 11.980469 6.820312 12.007812 C 6.828125 12.027344 6.320312 13.511719 5.699219 15.308594 C 5.074219 17.105469 4.574219 18.574219 4.578125 18.578125 C 4.582031 18.582031 5.167969 18.15625 5.878906 17.628906 C 7.054688 16.761719 7.253906 16.628906 7.253906 16.691406 C 7.253906 16.730469 8.144531 19.765625 8.164062 19.800781 C 8.175781 19.820312 8.585938 18.671875 9.078125 17.253906 C 9.570312 15.832031 9.980469 14.664062 9.992188 14.652344 C 10.011719 14.628906 10.066406 14.785156 11.058594 17.660156 C 11.472656 18.847656 11.816406 19.808594 11.828125 19.792969 C 11.847656 19.773438 12.566406 17.351562 12.742188 16.71875 C 12.765625 16.640625 12.867188 16.710938 14.089844 17.609375 C 14.820312 18.148438 15.417969 18.585938 15.421875 18.578125 C 15.425781 18.574219 14.921875 17.105469 14.296875 15.308594 C 13.675781 13.511719 13.171875 12.027344 13.175781 12.003906 C 13.183594 11.980469 13.535156 12.042969 14.105469 12.167969 C 14.613281 12.28125 15.027344 12.367188 15.03125 12.359375 C 15.035156 12.355469 14.945312 11.921875 14.832031 11.398438 C 14.714844 10.875 14.632812 10.4375 14.644531 10.421875 C 14.660156 10.410156 15.085938 10.324219 15.597656 10.230469 C 16.105469 10.144531 16.535156 10.0625 16.550781 10.058594 C 16.566406 10.050781 16.332031 9.691406 16.027344 9.253906 C 15.722656 8.816406 15.472656 8.441406 15.472656 8.421875 C 15.472656 8.402344 15.84375 8.152344 16.300781 7.859375 L 17.132812 7.328125 L 16.707031 7.054688 C 16.472656 6.90625 16.089844 6.660156 15.859375 6.515625 L 15.4375 6.246094 L 15.996094 5.449219 C 16.296875 5.011719 16.546875 4.640625 16.546875 4.621094 C 16.546875 4.605469 16.117188 4.511719 15.589844 4.421875 C 15.0625 4.324219 14.628906 4.234375 14.628906 4.210938 C 14.628906 4.191406 14.71875 3.753906 14.832031 3.238281 C 14.996094 2.496094 15.027344 2.308594 14.980469 2.308594 C 14.949219 2.308594 14.519531 2.398438 14.027344 2.507812 C 13.496094 2.625 13.113281 2.6875 13.09375 2.667969 C 13.070312 2.644531 12.746094 0.90625 12.746094 0.800781 C 12.746094 0.734375 12.628906 0.804688 11.878906 1.328125 L 11.082031 1.886719 L 10.847656 1.519531 C 10.71875 1.316406 10.476562 0.941406 10.308594 0.675781 L 10 0.199219 Z M 10.714844 3.25 C 12.375 3.539062 13.714844 4.839844 14.046875 6.484375 C 14.144531 6.941406 14.152344 7.628906 14.074219 8.070312 C 13.644531 10.457031 11.207031 11.980469 8.875 11.3125 C 8.144531 11.105469 7.609375 10.777344 7.042969 10.207031 C 6.453125 9.609375 6.109375 8.960938 5.941406 8.148438 C 5.839844 7.660156 5.859375 6.746094 5.980469 6.296875 C 6.304688 5.121094 7.089844 4.152344 8.15625 3.621094 C 8.757812 3.324219 9.277344 3.199219 9.964844 3.195312 C 10.199219 3.191406 10.539062 3.21875 10.714844 3.25 Z M 10.714844 3.25 "/>
<path style=" stroke:none;fill-rule:nonzero;fill:#EB4F38;fill-opacity:1;" d="M 9.269531 3.910156 C 8.042969 4.171875 7.039062 5.089844 6.664062 6.296875 C 6.265625 7.554688 6.625 8.917969 7.585938 9.839844 C 7.894531 10.132812 8.105469 10.28125 8.46875 10.464844 C 9.578125 11.019531 10.929688 10.917969 11.976562 10.210938 C 12.234375 10.03125 12.652344 9.617188 12.847656 9.347656 C 13.085938 9.023438 13.308594 8.527344 13.402344 8.125 C 13.5 7.707031 13.511719 7.03125 13.425781 6.628906 C 13.132812 5.265625 12.054688 4.183594 10.703125 3.90625 C 10.335938 3.828125 9.632812 3.828125 9.269531 3.910156 Z M 9.269531 3.910156 "/>
</g>
</svg>
